<svg width="200" height="200" viewBox="0 0 200 200" fill="none" xmlns="http://www.w3.org/2000/svg">
<path d="M183.981 91.2558L166.323 121.72C166.138 122.01 165.946 122.277 165.747 122.526C165.312 123.074 164.847 123.526 164.364 123.894C163.186 124.787 161.897 125.158 160.63 125.114L76.3679 125.043C72.6305 125.043 69.3434 121.31 69.3434 117.06V54.0995C69.3434 49.8502 72.6305 46.1171 76.3687 46.1171H159.718C162.037 45.644 164.562 46.5731 166.422 49.4772L183.991 79.945C185.304 81.4189 186.147 83.4156 186.108 85.5924C186.151 87.7776 185.301 89.7793 183.981 91.2558Z" fill="url(#paint0_linear_2866_116)"/>
<path d="M15.4486 103.011L35.7317 68.0137C35.9447 67.6821 36.1653 67.3751 36.3917 67.0889C36.8934 66.4593 37.4254 65.9381 37.9801 65.518C39.3353 64.4919 40.8143 64.0668 42.2706 64.1156L149.468 64.1958C153.762 64.1958 157.536 68.4871 157.536 73.3676L157.535 145.695C157.535 150.576 153.76 154.865 149.467 154.865H43.3169C40.6535 155.409 37.7537 154.343 35.6181 151.006L15.4335 116.006C13.9242 114.311 12.957 112.018 13.0016 109.517C12.9545 107.008 13.9318 104.707 15.4478 103.013V103.011H15.4486Z" fill="url(#paint1_linear_2866_116)"/>
<path d="M69.3484 99.3931V117.074C69.3703 121.307 72.6473 125.018 76.3737 125.018L157.541 125.081L157.542 73.3388C157.542 68.4582 153.767 64.1678 149.472 64.1678L69.3501 64.1082L69.3484 99.3931Z" fill="url(#paint2_linear_2866_116)"/>
<path d="M26.1592 134.597V134.602L35.6198 151.002C37.7545 154.338 40.6552 155.405 43.3185 154.862H149.466C153.762 154.862 157.536 150.571 157.536 145.69V130.824C141.378 127.954 121.607 126.264 100.254 126.264C70.7532 126.264 44.2705 129.488 26.1592 134.597Z" fill="url(#paint3_linear_2866_116)"/>
<path d="M92.6291 84.0528H108.186V100.359H92.6291V84.0528ZM97.3404 87.0553V91.0993H103.476V87.0553H97.3404ZM54.7195 108.703H79.5035V129.624H54.7195V108.703ZM64.0453 111.307V115.347H70.1792V111.307H64.0453ZM81.7232 103.145H111.495V129.625H81.7232V103.145ZM93.5424 105.963V110.003H99.6772V105.963H93.5424ZM64.2794 74.5386H90.7427V100.359H79.607V106.424H64.2794V74.5386ZM74.4428 77.6208V81.6623H80.5784V77.6208H74.4428ZM133.913 139.914H51.4963V134.197H133.913V139.914ZM121.665 132.521C121.445 132.634 121.209 132.717 120.97 132.771C120.163 132.974 119.457 132.788 118.911 132.381C118.644 132.187 118.406 131.935 118.215 131.615C117.98 131.234 117.821 130.797 117.758 130.351L115.693 122.391C115.309 121.164 115.438 120.177 115.855 119.441L135.921 77.5226C136.023 77.3121 136.136 77.1236 136.259 76.9586C137.273 75.4914 139.12 74.8935 140.764 75.5846C140.881 75.6326 140.997 75.685 141.115 75.7498L149.573 80.3372C151.09 81.1613 151.844 82.8619 151.627 84.5016C151.616 84.9048 151.514 85.3367 151.301 85.7819L131.236 127.547C130.92 128.379 130.258 129.094 129.108 129.53L121.665 132.521ZM137.662 86.3989L143.463 89.6159L145.848 84.6521L140.014 81.4889L137.662 86.3989ZM141.015 94.7121L135.218 91.5025L120.95 121.303L122.241 126.265L126.72 124.471L141.015 94.7121Z" fill="#83E4ED"/>
<path d="M163.461 85.5563C163.461 88.7878 166.081 91.4071 169.313 91.4071C172.543 91.4071 175.163 88.7878 175.163 85.5563C175.163 82.3256 172.545 79.705 169.313 79.705C166.082 79.705 163.461 82.3256 163.461 85.5563Z" fill="#EFD9FF"/>
<path d="M39.0247 109.553C39.0247 105.84 36.0155 102.832 32.3033 102.832C28.5919 102.832 25.5818 105.84 25.5818 109.553C25.5818 113.264 28.5919 116.274 32.3033 116.274C36.0155 116.274 39.0247 113.264 39.0247 109.553Z" fill="#BDC8F6"/>
<defs>
<linearGradient id="paint0_linear_2866_116" x1="66.0684" y1="112.76" x2="185.696" y2="50.9175" gradientUnits="userSpaceOnUse">
<stop stop-color="#6D17FB"/>
<stop offset="0.6588" stop-color="#DB4DFF"/>
<stop offset="1" stop-color="#DB4DFF"/>
</linearGradient>
<linearGradient id="paint1_linear_2866_116" x1="11.5475" y1="103.323" x2="159.091" y2="114.32" gradientUnits="userSpaceOnUse">
<stop stop-color="#293BE0"/>
<stop offset="1" stop-color="#0A92E7"/>
</linearGradient>
<linearGradient id="paint2_linear_2866_116" x1="69.348" y1="94.5945" x2="157.54" y2="94.5945" gradientUnits="userSpaceOnUse">
<stop stop-color="#9A2DFD"/>
<stop offset="1" stop-color="#4443D9"/>
</linearGradient>
<linearGradient id="paint3_linear_2866_116" x1="25.5553" y1="148.127" x2="158.436" y2="137.13" gradientUnits="userSpaceOnUse">
<stop stop-color="#2734B0"/>
<stop offset="1" stop-color="#14A7A9"/>
</linearGradient>
</defs>
</svg>
